<svg width="27" height="27" viewBox="0 0 27 27" fill="none" xmlns="http://www.w3.org/2000/svg">
<path d="M13.3728 24.071C16.2101 24.071 18.9312 22.9439 20.9376 20.9376C22.9439 18.9312 24.071 16.2101 24.071 13.3728C24.071 10.5354 22.9439 7.81429 20.9376 5.80799C18.9312 3.80168 16.2101 2.67455 13.3728 2.67455C10.5354 2.67455 7.81429 3.80168 5.80799 5.80799C3.80168 7.81429 2.67455 10.5354 2.67455 13.3728C2.67455 16.2101 3.80168 18.9312 5.80799 20.9376C7.81429 22.9439 10.5354 24.071 13.3728 24.071ZM13.3728 26.7455C5.98699 26.7455 0 20.7585 0 13.3728C0 5.98699 5.98699 0 13.3728 0C20.7585 0 26.7455 5.98699 26.7455 13.3728C26.7455 20.7585 20.7585 26.7455 13.3728 26.7455Z" fill="white"/>
<path d="M19.9006 15.1295V20.0735H17.0348V15.4598C17.0348 14.3018 16.6203 13.5114 15.5826 13.5114C14.7909 13.5114 14.3188 14.0437 14.1116 14.5599C14.0367 14.7444 14.0166 15.0012 14.0166 15.2579V20.0735H11.1495C11.1495 20.0735 11.1883 12.2611 11.1495 11.452H14.0166V12.673L13.9979 12.701H14.0166V12.673C14.3977 12.0846 15.0771 11.2488 16.6002 11.2488C18.4858 11.2488 19.9006 12.4817 19.9006 15.1295ZM8.14998 7.29443C7.16976 7.29443 6.52786 7.939 6.52786 8.78416C6.52786 9.61327 7.15103 10.2752 8.11254 10.2752H8.13126C9.13154 10.2752 9.75337 9.61193 9.75337 8.78416C9.73465 7.939 9.13154 7.29443 8.14998 7.29443ZM6.6977 20.0735H9.56482V11.452H6.6977V20.0735Z" fill="white"/>
</svg>
