<svg width="27" height="27" viewBox="0 0 27 27" fill="none" xmlns="http://www.w3.org/2000/svg">
<path d="M18.4798 7.67615L17.5003 8.44141L13.3296 11.5407L9.15893 8.4108L8.17939 7.64554C7.94863 7.45464 7.66693 7.33564 7.3692 7.30327C7.07146 7.27091 6.77078 7.32661 6.50439 7.46347C6.238 7.60033 6.01762 7.81234 5.87054 8.07323C5.72347 8.33411 5.65617 8.63242 5.67698 8.93118V17.8006C5.67698 18.0766 5.78663 18.3413 5.98181 18.5365C6.17699 18.7317 6.44171 18.8414 6.71774 18.8414H9.15893V12.9335L13.3296 16.0634L17.5003 12.9335V18.8414H19.9415C20.2175 18.8414 20.4822 18.7317 20.6774 18.5365C20.8726 18.3413 20.9823 18.0766 20.9823 17.8006V8.93118C20.9966 8.635 20.9246 8.34101 20.7751 8.08497C20.6255 7.82893 20.4047 7.62185 20.1397 7.48891C19.8746 7.35597 19.5766 7.3029 19.282 7.33614C18.9873 7.36938 18.7086 7.4875 18.4798 7.67615Z" fill="white"/>
<rect x="1.21571" y="1.21571" width="24.226" height="23.7041" rx="11.8521" stroke="white" stroke-width="2.43141"/>
</svg>
